<?xml version="1.0" encoding="utf-8"?>
<!-- Generator: Adobe Illustrator 26.0.1, SVG Export Plug-In . SVG Version: 6.00 Build 0)  -->
<svg version="1.1" id="Слой_1" xmlns="http://www.w3.org/2000/svg" xmlns:xlink="http://www.w3.org/1999/xlink" x="0px" y="0px"
	 viewBox="0 0 57 116" style="enable-background:new 0 0 57 116;" xml:space="preserve">
<style type="text/css">
	.st0{fill:#940000;}
	.st1{fill:#2236CF;}
	.st2{fill:#333333;}
	.st3{fill:#222222;}
	.st4{fill:#B40000;}
	.st5{fill:#4256FF;}
	.st6{fill:#DDDDDD;stroke:#999999;stroke-miterlimit:10;}
	.st7{fill:#DDDDDD;stroke:#808080;stroke-miterlimit:10;}
	.st8{fill:none;stroke:#666666;stroke-miterlimit:10;}
	.st9{fill:#DDDDDD;}
	.st10{fill:#033333;}
	.st11{fill:#EDB900;stroke:#B57023;stroke-miterlimit:10;}
	.st12{fill:#754C24;stroke:#603813;stroke-width:3;stroke-miterlimit:10;}
	.st13{fill:#603813;stroke:#42210B;stroke-width:3;stroke-miterlimit:10;}
	.st14{fill:none;stroke:#603813;stroke-width:3;stroke-miterlimit:10;}
	.st15{fill:#603813;}
	.st16{fill:#FF0000;}
</style>
<path class="st0" d="M-294.67,353.91h206.36c56.15,0,101.77,40.5,102.29,90.65c0.02,0.31,0.02,0.6,0.02,0.9c0,0.31-0.98-4.76-1-4.45
	l-61.68,5.35c0.04-0.54,0.06-1.06,0.06-1.61v-0.2c-0.12-20-18.27-36.18-40.64-36.18h-205.21"/>
<path class="st1" d="M-293.47,487.63h204.21c11.23,0,21.38-4.84,28.74-12.64c6.96-7.39,11.4-17.47,11.84-28.63L13,435
	c-0.26,29.6-10.68,67.72-28.97,87.15C-34.49,541.83-60.08,554-88.31,554h-205.36"/>
<g>
	<path class="st2" d="M-850.9-170.21h-384.62c-13.8,0-24.99,11.19-24.99,24.99v536.73c0,13.8,11.19,24.99,24.99,24.99h384.62
		c13.8,0,24.99-11.19,24.99-24.99v-536.73C-825.91-159.02-837.1-170.21-850.9-170.21z M-869.37,293.3c0,8.04-6.52,14.56-14.56,14.56
		h-318.56c-8.04,0-14.56-6.52-14.56-14.56v-405.48c0-8.04,6.52-14.56,14.56-14.56h318.56c8.04,0,14.56,6.52,14.56,14.56V293.3z"/>
</g>
<g>
	<path class="st3" d="M-841.71-183h-402.23c-14.43,0-26.13,11.69-26.13,26.11v560.78c0,14.42,11.7,26.11,26.13,26.11h402.23
		c14.43,0,26.13-11.69,26.13-26.11v-560.78C-815.58-171.31-827.28-183-841.71-183z M-861.03,301.27c0,8.4-6.82,15.21-15.23,15.21
		h-333.14c-8.41,0-15.23-6.81-15.23-15.21v-423.65c0-8.4,6.82-15.21,15.23-15.21h333.14c8.41,0,15.23,6.81,15.23,15.21V301.27z"/>
</g>
<path class="st2" d="M-952.61,308.56h-183.13v-37.72c0-4.72,3.83-8.55,8.55-8.55h166.03c4.72,0,8.55,3.83,8.55,8.55V308.56z"/>
<path class="st3" d="M-952.61,316.27h-183.13v-37.72c0-4.72,3.83-8.55,8.55-8.55h166.03c4.72,0,8.55,3.83,8.55,8.55V316.27z"/>
<path class="st4" d="M-1072.85,121.43V266h30.06v0.14h-73.15V120.76c0-39.75,32.04-72.05,71.72-72.42c0.24-0.01,0.47-0.01,0.71-0.01
	c0.24,0,0.47,0,0.71,0.01V92.7c-0.43-0.03-0.84-0.04-1.27-0.04h-0.16C-1060.04,92.74-1072.85,105.59-1072.85,121.43z"/>
<path class="st5" d="M-971.07,120.76v145.39h-71.72V266h27.5V121.43c0-7.95-3.23-15.14-8.42-20.35c-4.93-4.93-11.64-8.07-19.08-8.38
	V48.33c19.72,0.19,37.55,8.25,50.51,21.2C-979.18,82.65-971.07,100.77-971.07,120.76z"/>
<path class="st2" d="M-1018.15,261.83h-51.04v-54.6c0-4.72,3.83-8.55,8.55-8.55h33.95c4.72,0,8.55,3.83,8.55,8.55V261.83z"/>
<path class="st3" d="M-1018.15,266.57h-51.04v-54.6c0-4.72,3.83-8.55,8.55-8.55h33.95c4.72,0,8.55,3.83,8.55,8.55V266.57z"/>
<path class="st2" d="M-795.98,417.96h-493.62c-3.89,0-7.04-3.15-7.04-7.04v-87.88c0-3.89,3.15-7.04,7.04-7.04h493.62
	c3.89,0,7.04,3.15,7.04,7.04v87.88C-788.93,414.81-792.09,417.96-795.98,417.96z"/>
<path class="st3" d="M-796.17,430h-493.62c-3.89,0-7.04-3.15-7.04-7.04v-87.88c0-3.89,3.15-7.04,7.04-7.04h493.62
	c3.89,0,7.04,3.15,7.04,7.04v87.88C-789.13,426.85-792.28,430-796.17,430z"/>
<circle class="st6" cx="-1102.97" cy="385.66" r="13.49"/>
<circle class="st7" cx="-969.96" cy="385.66" r="13.49"/>
<circle class="st8" cx="-1102.71" cy="384.55" r="6.49"/>
<circle class="st8" cx="-970.41" cy="385.26" r="6.49"/>
<path class="st9" d="M-869.72-127.1V52.18h-2.18c-42.76-40.58-99.81-66.16-163-68.55c-3.3-0.33-6.59-0.33-9.89-0.33
	s-6.59,0-9.89,0.33c-62.71,2.37-119.36,27.58-162.02,67.62V-127.1H-869.72z"/>
<rect x="-1043.21" y="-57.7" class="st3" width="3.86" height="26.99"/>
<rect x="-1201.28" y="-13.36" transform="matrix(0.8406 -0.5417 0.5417 0.8406 -191.2816 -649.6709)" class="st3" width="3.86" height="26.99"/>
<rect x="-889" y="-13.36" transform="matrix(0.834 0.5518 -0.5518 0.834 -147.2051 489.5094)" class="st3" width="3.86" height="26.99"/>
<rect x="-1012.69" y="-51.92" transform="matrix(0.9991 0.0421 -0.0421 0.9991 -2.6429 42.5637)" class="st10" width="2.25" height="20.94"/>
<rect x="-988.82" y="-47.94" transform="matrix(0.9947 0.1023 -0.1023 0.9947 -9.0208 100.8847)" class="st10" width="2.25" height="20.94"/>
<rect x="-963.76" y="-42.16" transform="matrix(0.956 0.2934 -0.2934 0.956 -51.6518 281.0099)" class="st10" width="2.25" height="20.94"/>
<rect x="-938.7" y="-34.45" transform="matrix(0.9238 0.383 -0.383 0.9238 -80.6647 357.2401)" class="st10" width="2.25" height="20.94"/>
<rect x="-915.57" y="-22.88" transform="matrix(0.866 0.5 -0.5 0.866 -128.7178 455.559)" class="st10" width="2.25" height="20.94"/>
<rect x="-1076.73" y="-52.38" transform="matrix(-0.9991 0.0421 -0.0421 -0.9991 -2152.0173 -38.4896)" class="st10" width="2.25" height="20.94"/>
<rect x="-1100.6" y="-48.41" transform="matrix(-0.9947 0.1023 -0.1023 -0.9947 -2197.0613 36.8505)" class="st10" width="2.25" height="20.94"/>
<rect x="-1125.66" y="-42.62" transform="matrix(-0.956 0.2934 -0.2934 -0.956 -2209.0244 267.0111)" class="st10" width="2.25" height="20.94"/>
<rect x="-1150.72" y="-34.91" transform="matrix(-0.9238 0.383 -0.383 -0.9238 -2220.9045 393.2475)" class="st10" width="2.25" height="20.94"/>
<rect x="-1173.85" y="-23.35" transform="matrix(-0.866 0.5 -0.5 -0.866 -2194.7771 562.3384)" class="st10" width="2.25" height="20.94"/>
<text transform="matrix(1 0 0 1 -1054.3525 -63.1597)" style="font-family:'MyriadPro-Regular'; font-size:52.0472px;">0</text>
<text transform="matrix(1 0 0 1 -1216.5605 -27.6709)" style="font-family:'MyriadPro-Regular'; font-size:52.0472px;">5</text>
<text transform="matrix(1 0 0 1 -894.6396 -21.8872)" style="font-family:'MyriadPro-Regular'; font-size:52.0472px;">5</text>
<polygon class="st11" points="-273.48,169.61 -266.85,181.12 -273.48,192.62 -286.78,192.62 -293.41,181.12 -286.78,169.61 
	-284.95,169.61 -284.95,-87.79 -294.59,-87.79 -280.13,-120.72 -266,-87.79 -275.31,-87.79 -275.31,169.61 "/>
<ellipse class="st12" cx="-1241" cy="621" rx="25.5" ry="56.5"/>
<ellipse class="st12" cx="-1234" cy="621" rx="25.5" ry="56.5"/>
<ellipse class="st12" cx="-1227" cy="621" rx="25.5" ry="56.5"/>
<ellipse class="st12" cx="-1220" cy="621" rx="25.5" ry="56.5"/>
<ellipse class="st12" cx="-1214" cy="621" rx="25.5" ry="56.5"/>
<ellipse class="st12" cx="-1207" cy="621" rx="25.5" ry="56.5"/>
<ellipse class="st12" cx="-1200" cy="621" rx="25.5" ry="56.5"/>
<ellipse class="st12" cx="-1193" cy="621" rx="25.5" ry="56.5"/>
<ellipse class="st12" cx="-1187" cy="621" rx="25.5" ry="56.5"/>
<ellipse class="st12" cx="-1180" cy="621" rx="25.5" ry="56.5"/>
<ellipse class="st12" cx="-1173" cy="621" rx="25.5" ry="56.5"/>
<ellipse class="st12" cx="-1166" cy="621" rx="25.5" ry="56.5"/>
<ellipse class="st12" cx="-1160" cy="621" rx="25.5" ry="56.5"/>
<ellipse class="st12" cx="-1153" cy="621" rx="25.5" ry="56.5"/>
<ellipse class="st12" cx="-1146" cy="621" rx="25.5" ry="56.5"/>
<ellipse class="st12" cx="-1139" cy="621" rx="25.5" ry="56.5"/>
<ellipse class="st12" cx="-1134" cy="621" rx="25.5" ry="56.5"/>
<ellipse class="st12" cx="-1127" cy="621" rx="25.5" ry="56.5"/>
<ellipse class="st12" cx="-1120" cy="621" rx="25.5" ry="56.5"/>
<ellipse class="st12" cx="-1113" cy="621" rx="25.5" ry="56.5"/>
<ellipse class="st12" cx="-1107" cy="621" rx="25.5" ry="56.5"/>
<ellipse class="st12" cx="-1100" cy="621" rx="25.5" ry="56.5"/>
<ellipse class="st12" cx="-1093" cy="621" rx="25.5" ry="56.5"/>
<ellipse class="st12" cx="-1086" cy="621" rx="25.5" ry="56.5"/>
<path class="st12" d="M-1057.5,621c0,6.71,0.53,13.14,1.5,19.11c-0.85,5.23-2.03,10.1-3.5,14.48c-1.03,3.1-2.21,5.96-3.5,8.52
	c-1.09,2.16-2.25,4.11-3.5,5.82c-0.95,1.33-1.96,2.53-3,3.57c-1.12,1.13-2.29,2.08-3.5,2.85c-1.14,0.71-2.3,1.26-3.5,1.62
	c-1.14,0.35-2.31,0.53-3.5,0.53c-14.08,0-25.5-25.3-25.5-56.5s11.42-56.5,25.5-56.5c1.19,0,2.36,0.18,3.5,0.53
	c1.2,0.36,2.36,0.91,3.5,1.62c1.21,0.77,2.38,1.72,3.5,2.85c1.04,1.04,2.05,2.24,3,3.57c1.25,1.71,2.41,3.66,3.5,5.82
	c1.29,2.56,2.47,5.42,3.5,8.52c1.47,4.38,2.65,9.25,3.5,14.48C-1056.97,607.86-1057.5,614.29-1057.5,621z"/>
<path class="st12" d="M-1056,640.11c0.85,5.23,2.03,10.1,3.5,14.48c-1.03,3.1-2.21,5.96-3.5,8.52c-1.09,2.16-2.25,4.11-3.5,5.82
	c-1.11,1.55-2.28,2.91-3.5,4.06c-0.97,0.92-1.97,1.71-3,2.36c-1.14,0.71-2.3,1.26-3.5,1.62c-1.14,0.35-2.31,0.53-3.5,0.53
	s-2.36-0.18-3.5-0.53c-12.42-3.78-22-27.4-22-55.97s9.58-52.19,22-55.97c1.14-0.35,2.31-0.53,3.5-0.53s2.36,0.18,3.5,0.53
	c1.2,0.36,2.36,0.91,3.5,1.62c1.03,0.65,2.03,1.44,3,2.36c1.22,1.15,2.39,2.51,3.5,4.06c1.25,1.71,2.41,3.66,3.5,5.82
	c1.29,2.56,2.47,5.42,3.5,8.52c-1.47,4.38-2.65,9.25-3.5,14.48c-0.97,5.97-1.5,12.4-1.5,19.11
	C-1057.5,627.71-1056.97,634.14-1056,640.11z"/>
<path class="st12" d="M-1052.5,654.59c1.03,3.1,2.21,5.96,3.5,8.52c-1.09,2.16-2.25,4.11-3.5,5.82c-1.11,1.55-2.28,2.91-3.5,4.06
	c-1.13,1.07-2.3,1.96-3.5,2.65c-0.98,0.58-1.98,1.02-3,1.33c-1.14,0.35-2.31,0.53-3.5,0.53s-2.36-0.18-3.5-0.53
	c-1.2-0.36-2.36-0.91-3.5-1.62c-10.68-6.75-18.5-28.53-18.5-54.35s7.82-47.6,18.5-54.35c1.14-0.71,2.3-1.26,3.5-1.62
	c1.14-0.35,2.31-0.53,3.5-0.53s2.36,0.18,3.5,0.53c1.02,0.31,2.02,0.75,3,1.33c1.2,0.69,2.37,1.58,3.5,2.65
	c1.22,1.15,2.39,2.51,3.5,4.06c1.25,1.71,2.41,3.66,3.5,5.82c-1.29,2.56-2.47,5.42-3.5,8.52c-1.47,4.38-2.65,9.25-3.5,14.48
	c-0.97,5.97-1.5,12.4-1.5,19.11c0,6.71,0.53,13.14,1.5,19.11C-1055.15,645.34-1053.97,650.21-1052.5,654.59z"/>
<path class="st12" d="M-1049,663.11c1.09,2.16,2.25,4.11,3.5,5.82c-1.11,1.55-2.28,2.91-3.5,4.06c-1.13,1.07-2.3,1.96-3.5,2.65
	c-1.13,0.67-2.3,1.16-3.49,1.47h-0.01c-0.99,0.26-1.99,0.39-3,0.39c-1.19,0-2.36-0.18-3.5-0.53c-1.2-0.36-2.36-0.91-3.5-1.62
	c-1.21-0.77-2.38-1.72-3.5-2.85c-8.85-8.87-15-28.6-15-51.5c0-22.9,6.15-42.63,15-51.5c1.12-1.13,2.29-2.08,3.5-2.85
	c1.14-0.71,2.3-1.26,3.5-1.62c1.14-0.35,2.31-0.53,3.5-0.53c1.01,0,2.01,0.13,3,0.39h0.01c1.19,0.31,2.36,0.8,3.49,1.47
	c1.2,0.69,2.37,1.58,3.5,2.65c1.22,1.15,2.39,2.51,3.5,4.06c-1.25,1.71-2.41,3.66-3.5,5.82c-1.29,2.56-2.47,5.42-3.5,8.52
	c-1.47,4.38-2.65,9.25-3.5,14.48c-0.97,5.97-1.5,12.4-1.5,19.11c0,6.71,0.53,13.14,1.5,19.11c0.85,5.23,2.03,10.1,3.5,14.48
	C-1051.47,657.69-1050.29,660.55-1049,663.11z"/>
<path class="st12" d="M-1045.5,668.93c0.95,1.33,1.96,2.53,3,3.57c-1.12,1.13-2.29,2.08-3.5,2.85c-1.14,0.71-2.3,1.26-3.5,1.62
	c-1.14,0.35-2.31,0.53-3.5,0.53c-1.01,0-2-0.13-2.99-0.39h-0.01c-1.19-0.31-2.36-0.8-3.5-1.47c-1.2-0.69-2.37-1.58-3.5-2.65
	c-1.22-1.15-2.39-2.51-3.5-4.06c-7.21-9.98-12-27.72-12-47.93c0-20.21,4.79-37.95,12-47.93c1.11-1.55,2.28-2.91,3.5-4.06
	c1.13-1.07,2.3-1.96,3.5-2.65c1.14-0.67,2.31-1.16,3.5-1.47h0.01c0.99-0.26,1.98-0.39,2.99-0.39c1.19,0,2.36,0.18,3.5,0.53
	c1.2,0.36,2.36,0.91,3.5,1.62c1.21,0.77,2.38,1.72,3.5,2.85c-1.04,1.04-2.05,2.24-3,3.57c-1.25,1.71-2.41,3.66-3.5,5.82
	c-1.29,2.56-2.47,5.42-3.5,8.52c-1.47,4.38-2.65,9.25-3.5,14.48c-0.97,5.97-1.5,12.4-1.5,19.11c0,6.71,0.53,13.14,1.5,19.11
	c0.85,5.23,2.03,10.1,3.5,14.48c1.03,3.1,2.21,5.96,3.5,8.52C-1047.91,665.27-1046.75,667.22-1045.5,668.93z"/>
<path class="st12" d="M-1042.5,672.5c1.12,1.13,2.29,2.08,3.5,2.85c-1.14,0.71-2.3,1.26-3.5,1.62c-1.14,0.35-2.31,0.53-3.5,0.53
	s-2.36-0.18-3.5-0.53c-1.02-0.31-2.02-0.75-3-1.33c-1.2-0.69-2.37-1.58-3.5-2.65c-1.22-1.15-2.39-2.51-3.5-4.06
	c-1.25-1.71-2.41-3.66-3.5-5.82c-5.22-10.34-8.5-25.38-8.5-42.11c0-16.73,3.28-31.77,8.5-42.11c1.09-2.16,2.25-4.11,3.5-5.82
	c1.11-1.55,2.28-2.91,3.5-4.06c1.13-1.07,2.3-1.96,3.5-2.65c0.98-0.58,1.98-1.02,3-1.33c1.14-0.35,2.31-0.53,3.5-0.53
	s2.36,0.18,3.5,0.53c1.2,0.36,2.36,0.91,3.5,1.62c-1.21,0.77-2.38,1.72-3.5,2.85c-1.04,1.04-2.05,2.24-3,3.57
	c-1.25,1.71-2.41,3.66-3.5,5.82c-1.29,2.56-2.47,5.42-3.5,8.52c-1.47,4.38-2.65,9.25-3.5,14.48c-0.97,5.97-1.5,12.4-1.5,19.11
	c0,6.71,0.53,13.14,1.5,19.11c0.85,5.23,2.03,10.1,3.5,14.48c1.03,3.1,2.21,5.96,3.5,8.52c1.09,2.16,2.25,4.11,3.5,5.82
	C-1044.55,670.26-1043.54,671.46-1042.5,672.5z"/>
<path class="st12" d="M-1039,675.35c1.14,0.71,2.3,1.26,3.5,1.62c-1.14,0.35-2.31,0.53-3.5,0.53s-2.36-0.18-3.5-0.53
	c-1.2-0.36-2.36-0.91-3.5-1.62c-1.03-0.65-2.03-1.44-3-2.36c-1.22-1.15-2.39-2.51-3.5-4.06c-1.25-1.71-2.41-3.66-3.5-5.82
	c-1.29-2.56-2.47-5.42-3.5-8.52c-3.14-9.39-5-21.01-5-33.59c0-12.58,1.86-24.2,5-33.59c1.03-3.1,2.21-5.96,3.5-8.52
	c1.09-2.16,2.25-4.11,3.5-5.82c1.11-1.55,2.28-2.91,3.5-4.06c0.97-0.92,1.97-1.71,3-2.36c1.14-0.71,2.3-1.26,3.5-1.62
	c1.14-0.35,2.31-0.53,3.5-0.53s2.36,0.18,3.5,0.53c-1.2,0.36-2.36,0.91-3.5,1.62c-1.21,0.77-2.38,1.72-3.5,2.85
	c-1.04,1.04-2.05,2.24-3,3.57c-1.25,1.71-2.41,3.66-3.5,5.82c-1.29,2.56-2.47,5.42-3.5,8.52c-1.47,4.38-2.65,9.25-3.5,14.48
	c-0.97,5.97-1.5,12.4-1.5,19.11c0,6.71,0.53,13.14,1.5,19.11c0.85,5.23,2.03,10.1,3.5,14.48c1.03,3.1,2.21,5.96,3.5,8.52
	c1.09,2.16,2.25,4.11,3.5,5.82c0.95,1.33,1.96,2.53,3,3.57C-1041.38,673.63-1040.21,674.58-1039,675.35z"/>
<path class="st13" d="M53.5,58c0,31.2-11.42,56.5-25.5,56.5c-1.01,0-2.01-0.13-3-0.39C37.67,110.83,47.5,86.95,47.5,58
	S37.67,5.17,25,1.89c0.99-0.26,1.99-0.39,3-0.39C42.08,1.5,53.5,26.8,53.5,58z"/>
<path class="st13" d="M47.5,58c0,28.95-9.83,52.83-22.5,56.11c-1.19-0.31-2.36-0.8-3.5-1.47c10.93-6.36,19-28.42,19-54.64
	c0-26.22-8.07-48.28-19-54.64c1.14-0.67,2.31-1.16,3.5-1.47C37.67,5.17,47.5,29.05,47.5,58z"/>
<path class="st13" d="M40.5,58c0,26.22-8.07,48.28-19,54.64c-1.2-0.69-2.37-1.58-3.5-2.65c9.11-8.61,15.5-28.65,15.5-51.99
	c0-23.34-6.39-43.38-15.5-51.99c1.13-1.07,2.3-1.96,3.5-2.65C32.43,9.72,40.5,31.78,40.5,58z"/>
<path class="st13" d="M33.5,58c0,23.34-6.39,43.38-15.5,51.99c-1.22-1.15-2.39-2.51-3.5-4.06c7.21-9.98,12-27.72,12-47.93
	c0-20.21-4.79-37.95-12-47.93c1.11-1.55,2.28-2.91,3.5-4.06C27.11,14.62,33.5,34.66,33.5,58z"/>
<path class="st13" d="M26.5,58c0,20.21-4.79,37.95-12,47.93c-1.06-1.45-2.06-3.08-3-4.85c5.5-10.36,9-25.82,9-43.08
	s-3.5-32.72-9-43.08c0.94-1.77,1.94-3.4,3-4.85C21.71,20.05,26.5,37.79,26.5,58z"/>
<path class="st13" d="M20.5,58c0,17.26-3.5,32.72-9,43.08c-1.28-2.41-2.46-5.11-3.5-8.04c3.44-9.63,5.5-21.8,5.5-35.04
	S11.44,32.59,8,22.96c1.04-2.93,2.22-5.63,3.5-8.04C17,25.28,20.5,40.74,20.5,58z"/>
<path class="st13" d="M13.5,58c0,13.24-2.06,25.41-5.5,35.04c-1.42-3.97-2.6-8.37-3.5-13.1c1.29-6.75,2-14.16,2-21.94
	c0-7.78-0.71-15.19-2-21.94c0.9-4.73,2.08-9.13,3.5-13.1C11.44,32.59,13.5,44.76,13.5,58z"/>
<ellipse class="st13" cx="4.5" cy="58" rx="2" ry="21.94"/>
<ellipse class="st14" cx="28.74" cy="57.94" rx="26.76" ry="56.5"/>
<g>
	<g>
		<path class="st15" d="M-1243.6,564.14c0.27-3.99,3.94-6.51,7.23-8.06c3.54-1.67,7.21-2.92,10.6-4.91
			c6.62-3.87,12.26-9.26,16.51-15.64c1.07-1.61-1.52-3.12-2.59-1.51c-4.41,6.63-10.48,12.06-17.55,15.73
			c-6.54,3.39-16.59,5.37-17.2,14.39C-1246.73,566.07-1243.73,566.06-1243.6,564.14L-1243.6,564.14z"/>
	</g>
</g>
<g>
	<g>
		<path class="st15" d="M-1032.85,563.33c-6.9-3.89-13.16-8.81-18.53-14.63c-4.91-5.32-8.71-12.22-15.34-15.65
			c-1.71-0.89-3.23,1.7-1.51,2.59c3.28,1.7,5.78,4.36,8.1,7.18c2.38,2.9,4.64,5.89,7.22,8.62c5.41,5.73,11.7,10.61,18.55,14.48
			C-1032.68,566.87-1031.16,564.28-1032.85,563.33L-1032.85,563.33z"/>
	</g>
</g>
<path class="st4" d="M-294.31,340.79h208.45c57,0,103.31,45.94,103.84,102.83C18,443.97,18,444.3,18,444.65c0,0.35,0,0.68-0.02,1.02
	h-63.61c0.04-0.61,0.06-1.21,0.06-1.82v-0.23c-0.12-22.68-18.55-41.05-41.25-41.05h-207.29"/>
<path class="st5" d="M-294.11,485.1h207.29c11.4,0,21.7-4.63,29.17-12.08c7.06-7.06,11.57-16.69,12.02-27.35h63.61
	c-0.27,28.27-11.83,53.84-30.4,72.41c-18.79,18.79-44.77,30.42-73.44,30.42h-208.45"/>
<g>
	<g>
		<path class="st16" d="M-1103.92,384.38c1.67,11.94,3.18,24.74-0.4,36.49c-1.79,5.86-5.02,11.07-9.64,15.12
			c-5.08,4.44-11.25,7.41-17.07,10.73c-10.9,6.21-22.02,13.7-27.95,25.15c-3.21,6.19-4.79,13.03-7.43,19.45
			c-2.36,5.74-5.83,10.93-10.02,15.49c-9.45,10.28-21.8,17.33-33.85,24.11c-1.68,0.95-0.17,3.54,1.51,2.59
			c10.98-6.18,22.09-12.58,31.27-21.34c4.46-4.25,8.42-9.1,11.38-14.52c3.41-6.25,5.1-13.18,7.7-19.77
			c2.48-6.29,6.28-11.69,11.24-16.27c4.7-4.35,10.09-7.86,15.59-11.09c5.87-3.44,12.08-6.41,17.5-10.56c5.1-3.91,9-8.88,11.44-14.83
			c5.35-13.04,3.53-27.96,1.63-41.53C-1101.29,381.68-1104.18,382.49-1103.92,384.38L-1103.92,384.38z"/>
	</g>
</g>
<g>
	<g>
		<path class="st5" d="M-1067.01,533.05c-8.87-10.02-9.02-24.41-5.68-36.68c3.25-11.96,9.02-23.42,16.33-33.41
			c7.29-9.95,16.41-18.14,27-24.44c3.1-1.84,6.24-3.61,9.27-5.56c2.81-1.81,5.51-3.8,8.28-5.68c2.94-2,5.99-3.77,9.17-5.36
			c2.98-1.5,6.01-2.93,8.86-4.66c11.38-6.92,20.15-17.71,24.75-30.19c0.67-1.81-2.23-2.6-2.89-0.8c-4.14,11.23-12,21.06-22.05,27.57
			c-5.84,3.78-12.41,6.24-18.22,10.09c-2.91,1.93-5.72,4.02-8.64,5.94c-3.01,1.98-6.14,3.75-9.24,5.58
			c-10.91,6.44-20.27,14.61-27.93,24.72c-7.58,10.01-13.5,21.58-17.08,33.62c-4.12,13.85-4.13,30,5.95,41.39
			C-1067.85,536.62-1065.73,534.49-1067.01,533.05L-1067.01,533.05z"/>
	</g>
</g>
</svg>
