<?xml version="1.0" encoding="utf-8"?>
<!-- Generator: Adobe Illustrator 26.0.1, SVG Export Plug-In . SVG Version: 6.00 Build 0)  -->
<svg version="1.1" id="Слой_1" xmlns="http://www.w3.org/2000/svg" xmlns:xlink="http://www.w3.org/1999/xlink" x="0px" y="0px"
	 viewBox="0 0 567 884" style="enable-background:new 0 0 567 884;" xml:space="preserve">
<style type="text/css">
	.st0{fill:#940000;}
	.st1{fill:#2236CF;}
	.st2{fill:#333333;}
	.st3{fill:#222222;}
	.st4{fill:#B40000;}
	.st5{fill:#4256FF;}
	.st6{fill:#DDDDDD;stroke:#999999;stroke-miterlimit:10;}
	.st7{fill:#DDDDDD;stroke:#808080;stroke-miterlimit:10;}
	.st8{fill:none;stroke:#666666;stroke-miterlimit:10;}
	.st9{fill:#DDDDDD;}
	.st10{fill:#033333;}
	.st11{font-family:'MyriadPro-Regular';}
	.st12{font-size:52.0472px;}
	.st13{fill:#EDB900;stroke:#B57023;stroke-miterlimit:10;}
	.st14{fill:#754C24;stroke:#603813;stroke-width:3;stroke-miterlimit:10;}
	.st15{fill:#603813;stroke:#42210B;stroke-width:3;stroke-miterlimit:10;}
	.st16{fill:none;stroke:#603813;stroke-width:3;stroke-miterlimit:10;}
	.st17{fill:#603813;}
	.st18{fill:#FF0000;}
</style>
<path class="st0" d="M1023.33,539.91h206.36c56.15,0,101.77,40.5,102.29,90.65c0.02,0.31,0.02,0.6,0.02,0.9c0,0.31-0.98-4.76-1-4.45
	l-61.68,5.35c0.04-0.54,0.06-1.06,0.06-1.61v-0.2c-0.12-19.99-18.27-36.18-40.64-36.18h-205.21"/>
<path class="st1" d="M1024.53,673.63h204.21c11.23,0,21.38-4.84,28.74-12.64c6.96-7.39,11.4-17.47,11.84-28.63L1331,621
	c-0.26,29.6-10.68,67.72-28.97,87.15c-18.51,19.67-44.11,31.85-72.34,31.85h-205.36"/>
<g>
	<path class="st2" d="M467.1,15.79H82.48c-13.8,0-24.99,11.19-24.99,24.99v536.73c0,13.8,11.19,24.99,24.99,24.99H467.1
		c13.8,0,24.99-11.19,24.99-24.99V40.78C492.09,26.98,480.9,15.79,467.1,15.79z M448.63,479.3c0,8.04-6.52,14.56-14.56,14.56H115.51
		c-8.04,0-14.56-6.52-14.56-14.56V73.81c0-8.04,6.52-14.56,14.56-14.56h318.56c8.04,0,14.56,6.52,14.56,14.56V479.3z"/>
</g>
<g>
	<path class="st3" d="M476.29,3H74.06C59.63,3,47.93,14.69,47.93,29.11v560.78c0,14.42,11.7,26.11,26.13,26.11h402.23
		c14.43,0,26.13-11.69,26.13-26.11V29.11C502.42,14.69,490.72,3,476.29,3z M456.97,487.27c0,8.4-6.82,15.21-15.23,15.21H108.6
		c-8.41,0-15.23-6.81-15.23-15.21V63.62c0-8.4,6.82-15.21,15.23-15.21h333.14c8.41,0,15.23,6.81,15.23,15.21V487.27z"/>
</g>
<path class="st2" d="M365.39,494.56H182.26v-37.72c0-4.72,3.83-8.55,8.55-8.55h166.03c4.72,0,8.55,3.83,8.55,8.55V494.56z"/>
<path class="st3" d="M365.39,502.27H182.26v-37.72c0-4.72,3.83-8.55,8.55-8.55h166.03c4.72,0,8.55,3.83,8.55,8.55V502.27z"/>
<path class="st4" d="M245.15,307.43V452h30.06v0.14h-73.15V306.76c0-39.75,32.04-72.05,71.72-72.42c0.24-0.01,0.47-0.01,0.71-0.01
	c0.24,0,0.47,0,0.71,0.01v44.37c-0.43-0.03-0.84-0.04-1.27-0.04h-0.16C257.96,278.74,245.15,291.59,245.15,307.43z"/>
<path class="st5" d="M346.93,306.76v145.39h-71.72V452h27.5V307.43c0-7.95-3.23-15.14-8.42-20.35c-4.93-4.93-11.64-8.07-19.08-8.38
	v-44.37c19.72,0.19,37.55,8.25,50.51,21.2C338.82,268.65,346.93,286.77,346.93,306.76z"/>
<path class="st2" d="M299.85,447.83H248.8v-54.6c0-4.72,3.83-8.55,8.55-8.55h33.95c4.72,0,8.55,3.83,8.55,8.55V447.83z"/>
<path class="st3" d="M299.85,452.57H248.8v-54.6c0-4.72,3.83-8.55,8.55-8.55h33.95c4.72,0,8.55,3.83,8.55,8.55V452.57z"/>
<path class="st2" d="M522.02,603.96H28.4c-3.89,0-7.04-3.15-7.04-7.04v-87.88c0-3.89,3.15-7.04,7.04-7.04h493.62
	c3.89,0,7.04,3.15,7.04,7.04v87.88C529.07,600.81,525.91,603.96,522.02,603.96z"/>
<path class="st3" d="M521.83,616H28.21c-3.89,0-7.04-3.15-7.04-7.04v-87.88c0-3.89,3.15-7.04,7.04-7.04h493.62
	c3.89,0,7.04,3.15,7.04,7.04v87.88C528.87,612.85,525.72,616,521.83,616z"/>
<circle class="st6" cx="215.03" cy="571.66" r="13.49"/>
<circle class="st7" cx="348.04" cy="571.66" r="13.49"/>
<circle class="st8" cx="215.29" cy="570.55" r="6.49"/>
<circle class="st8" cx="347.59" cy="571.26" r="6.49"/>
<path class="st9" d="M448.28,58.9v179.27h-2.18c-42.76-40.58-99.81-66.16-163-68.55c-3.3-0.33-6.59-0.33-9.89-0.33
	c-3.3,0-6.59,0-9.89,0.33c-62.71,2.37-119.36,27.58-162.02,67.62V58.9H448.28z"/>
<rect x="274.79" y="128.3" class="st3" width="3.86" height="26.99"/>
<rect x="116.72" y="172.64" transform="matrix(0.8406 -0.5417 0.5417 0.8406 -81.9106 93.9452)" class="st3" width="3.86" height="26.99"/>
<rect x="429" y="172.64" transform="matrix(0.834 0.5518 -0.5518 0.834 174.2517 -206.8859)" class="st3" width="3.86" height="26.99"/>
<rect x="305.31" y="134.08" transform="matrix(0.9991 0.0421 -0.0421 0.9991 6.3594 -12.7766)" class="st10" width="2.25" height="20.94"/>
<rect x="329.18" y="138.06" transform="matrix(0.9947 0.1023 -0.1023 0.9947 16.9349 -33.0238)" class="st10" width="2.25" height="20.94"/>
<rect x="354.24" y="143.84" transform="matrix(0.956 0.2934 -0.2934 0.956 60.9058 -97.4621)" class="st10" width="2.25" height="20.94"/>
<rect x="379.3" y="151.55" transform="matrix(0.9238 0.383 -0.383 0.9238 91.0548 -133.3402)" class="st10" width="2.25" height="20.94"/>
<rect x="402.43" y="163.12" transform="matrix(0.866 0.5 -0.5 0.866 140.8608 -178.5217)" class="st10" width="2.25" height="20.94"/>
<rect x="241.27" y="133.62" transform="matrix(-0.9991 0.0421 -0.0421 -0.9991 490.6464 277.8401)" class="st10" width="2.25" height="20.94"/>
<rect x="217.4" y="137.59" transform="matrix(-0.9947 0.1023 -0.1023 -0.9947 451.0537 272.9889)" class="st10" width="2.25" height="20.94"/>
<rect x="192.34" y="143.38" transform="matrix(-0.956 0.2934 -0.2934 -0.956 423.5499 244.1712)" class="st10" width="2.25" height="20.94"/>
<rect x="167.28" y="151.09" transform="matrix(-0.9238 0.383 -0.383 -0.9238 385.8427 246.3054)" class="st10" width="2.25" height="20.94"/>
<rect x="144.15" y="162.65" transform="matrix(-0.866 0.5 -0.5 -0.866 357.6445 250.4192)" class="st10" width="2.25" height="20.94"/>
<text transform="matrix(1 0 0 1 263.6475 122.8403)" class="st11 st12">0</text>
<text transform="matrix(1 0 0 1 101.4395 158.3291)" class="st11 st12">5</text>
<text transform="matrix(1 0 0 1 423.3604 164.1128)" class="st11 st12">5</text>
<polygon class="st13" points="1044.52,355.61 1051.15,367.12 1044.52,378.62 1031.22,378.62 1024.59,367.12 1031.22,355.61 
	1033.05,355.61 1033.05,98.21 1023.41,98.21 1037.87,65.28 1052,98.21 1042.69,98.21 1042.69,355.61 "/>
<ellipse class="st14" cx="77" cy="807" rx="25.5" ry="56.5"/>
<ellipse class="st14" cx="84" cy="807" rx="25.5" ry="56.5"/>
<ellipse class="st14" cx="91" cy="807" rx="25.5" ry="56.5"/>
<ellipse class="st14" cx="98" cy="807" rx="25.5" ry="56.5"/>
<ellipse class="st14" cx="104" cy="807" rx="25.5" ry="56.5"/>
<ellipse class="st14" cx="111" cy="807" rx="25.5" ry="56.5"/>
<ellipse class="st14" cx="118" cy="807" rx="25.5" ry="56.5"/>
<ellipse class="st14" cx="125" cy="807" rx="25.5" ry="56.5"/>
<ellipse class="st14" cx="131" cy="807" rx="25.5" ry="56.5"/>
<ellipse class="st14" cx="138" cy="807" rx="25.5" ry="56.5"/>
<ellipse class="st14" cx="145" cy="807" rx="25.5" ry="56.5"/>
<ellipse class="st14" cx="152" cy="807" rx="25.5" ry="56.5"/>
<ellipse class="st14" cx="158" cy="807" rx="25.5" ry="56.5"/>
<ellipse class="st14" cx="165" cy="807" rx="25.5" ry="56.5"/>
<ellipse class="st14" cx="172" cy="807" rx="25.5" ry="56.5"/>
<ellipse class="st14" cx="179" cy="807" rx="25.5" ry="56.5"/>
<ellipse class="st14" cx="184" cy="807" rx="25.5" ry="56.5"/>
<ellipse class="st14" cx="191" cy="807" rx="25.5" ry="56.5"/>
<ellipse class="st14" cx="198" cy="807" rx="25.5" ry="56.5"/>
<ellipse class="st14" cx="205" cy="807" rx="25.5" ry="56.5"/>
<ellipse class="st14" cx="211" cy="807" rx="25.5" ry="56.5"/>
<ellipse class="st14" cx="218" cy="807" rx="25.5" ry="56.5"/>
<ellipse class="st14" cx="225" cy="807" rx="25.5" ry="56.5"/>
<ellipse class="st14" cx="232" cy="807" rx="25.5" ry="56.5"/>
<path class="st14" d="M260.5,807c0,6.71,0.53,13.14,1.5,19.11c-0.85,5.23-2.03,10.1-3.5,14.48c-1.03,3.1-2.21,5.96-3.5,8.52
	c-1.09,2.16-2.25,4.11-3.5,5.82c-0.95,1.33-1.96,2.53-3,3.57c-1.12,1.13-2.29,2.08-3.5,2.85c-1.14,0.71-2.3,1.26-3.5,1.62
	c-1.14,0.35-2.31,0.53-3.5,0.53c-14.08,0-25.5-25.3-25.5-56.5s11.42-56.5,25.5-56.5c1.19,0,2.36,0.18,3.5,0.53
	c1.2,0.36,2.36,0.91,3.5,1.62c1.21,0.77,2.38,1.72,3.5,2.85c1.04,1.04,2.05,2.24,3,3.57c1.25,1.71,2.41,3.66,3.5,5.82
	c1.29,2.56,2.47,5.42,3.5,8.52c1.47,4.38,2.65,9.25,3.5,14.48C261.03,793.86,260.5,800.29,260.5,807z"/>
<path class="st14" d="M262,826.11c0.85,5.23,2.03,10.1,3.5,14.48c-1.03,3.1-2.21,5.96-3.5,8.52c-1.09,2.16-2.25,4.11-3.5,5.82
	c-1.11,1.55-2.28,2.91-3.5,4.06c-0.97,0.92-1.97,1.71-3,2.36c-1.14,0.71-2.3,1.26-3.5,1.62c-1.14,0.35-2.31,0.53-3.5,0.53
	s-2.36-0.18-3.5-0.53c-12.42-3.78-22-27.4-22-55.97s9.58-52.19,22-55.97c1.14-0.35,2.31-0.53,3.5-0.53s2.36,0.18,3.5,0.53
	c1.2,0.36,2.36,0.91,3.5,1.62c1.03,0.65,2.03,1.44,3,2.36c1.22,1.15,2.39,2.51,3.5,4.06c1.25,1.71,2.41,3.66,3.5,5.82
	c1.29,2.56,2.47,5.42,3.5,8.52c-1.47,4.38-2.65,9.25-3.5,14.48c-0.97,5.97-1.5,12.4-1.5,19.11
	C260.5,813.71,261.03,820.14,262,826.11z"/>
<path class="st14" d="M265.5,840.59c1.03,3.1,2.21,5.96,3.5,8.52c-1.09,2.16-2.25,4.11-3.5,5.82c-1.11,1.55-2.28,2.91-3.5,4.06
	c-1.13,1.07-2.3,1.96-3.5,2.65c-0.98,0.58-1.98,1.02-3,1.33c-1.14,0.35-2.31,0.53-3.5,0.53s-2.36-0.18-3.5-0.53
	c-1.2-0.36-2.36-0.91-3.5-1.62c-10.68-6.75-18.5-28.53-18.5-54.35s7.82-47.6,18.5-54.35c1.14-0.71,2.3-1.26,3.5-1.62
	c1.14-0.35,2.31-0.53,3.5-0.53s2.36,0.18,3.5,0.53c1.02,0.31,2.02,0.75,3,1.33c1.2,0.69,2.37,1.58,3.5,2.65
	c1.22,1.15,2.39,2.51,3.5,4.06c1.25,1.71,2.41,3.66,3.5,5.82c-1.29,2.56-2.47,5.42-3.5,8.52c-1.47,4.38-2.65,9.25-3.5,14.48
	c-0.97,5.97-1.5,12.4-1.5,19.11c0,6.71,0.53,13.14,1.5,19.11C262.85,831.34,264.03,836.21,265.5,840.59z"/>
<path class="st14" d="M269,849.11c1.09,2.16,2.25,4.11,3.5,5.82c-1.11,1.55-2.28,2.91-3.5,4.06c-1.13,1.07-2.3,1.96-3.5,2.65
	c-1.13,0.67-2.3,1.16-3.49,1.47H262c-0.99,0.26-1.99,0.39-3,0.39c-1.19,0-2.36-0.18-3.5-0.53c-1.2-0.36-2.36-0.91-3.5-1.62
	c-1.21-0.77-2.38-1.72-3.5-2.85c-8.85-8.87-15-28.6-15-51.5c0-22.9,6.15-42.63,15-51.5c1.12-1.13,2.29-2.08,3.5-2.85
	c1.14-0.71,2.3-1.26,3.5-1.62c1.14-0.35,2.31-0.53,3.5-0.53c1.01,0,2.01,0.13,3,0.39h0.01c1.19,0.31,2.36,0.8,3.49,1.47
	c1.2,0.69,2.37,1.58,3.5,2.65c1.22,1.15,2.39,2.51,3.5,4.06c-1.25,1.71-2.41,3.66-3.5,5.82c-1.29,2.56-2.47,5.42-3.5,8.52
	c-1.47,4.38-2.65,9.25-3.5,14.48c-0.97,5.97-1.5,12.4-1.5,19.11c0,6.71,0.53,13.14,1.5,19.11c0.85,5.23,2.03,10.1,3.5,14.48
	C266.53,843.69,267.71,846.55,269,849.11z"/>
<path class="st14" d="M272.5,854.93c0.95,1.33,1.96,2.53,3,3.57c-1.12,1.13-2.29,2.08-3.5,2.85c-1.14,0.71-2.3,1.26-3.5,1.62
	c-1.14,0.35-2.31,0.53-3.5,0.53c-1.01,0-2-0.13-2.99-0.39H262c-1.19-0.31-2.36-0.8-3.5-1.47c-1.2-0.69-2.37-1.58-3.5-2.65
	c-1.22-1.15-2.39-2.51-3.5-4.06c-7.21-9.98-12-27.72-12-47.93c0-20.21,4.79-37.95,12-47.93c1.11-1.55,2.28-2.91,3.5-4.06
	c1.13-1.07,2.3-1.96,3.5-2.65c1.14-0.67,2.31-1.16,3.5-1.47h0.01c0.99-0.26,1.98-0.39,2.99-0.39c1.19,0,2.36,0.18,3.5,0.53
	c1.2,0.36,2.36,0.91,3.5,1.62c1.21,0.77,2.38,1.72,3.5,2.85c-1.04,1.04-2.05,2.24-3,3.57c-1.25,1.71-2.41,3.66-3.5,5.82
	c-1.29,2.56-2.47,5.42-3.5,8.52c-1.47,4.38-2.65,9.25-3.5,14.48c-0.97,5.97-1.5,12.4-1.5,19.11c0,6.71,0.53,13.14,1.5,19.11
	c0.85,5.23,2.03,10.1,3.5,14.48c1.03,3.1,2.21,5.96,3.5,8.52C270.09,851.27,271.25,853.22,272.5,854.93z"/>
<path class="st14" d="M275.5,858.5c1.12,1.13,2.29,2.08,3.5,2.85c-1.14,0.71-2.3,1.26-3.5,1.62c-1.14,0.35-2.31,0.53-3.5,0.53
	s-2.36-0.18-3.5-0.53c-1.02-0.31-2.02-0.75-3-1.33c-1.2-0.69-2.37-1.58-3.5-2.65c-1.22-1.15-2.39-2.51-3.5-4.06
	c-1.25-1.71-2.41-3.66-3.5-5.82c-5.22-10.34-8.5-25.38-8.5-42.11c0-16.73,3.28-31.77,8.5-42.11c1.09-2.16,2.25-4.11,3.5-5.82
	c1.11-1.55,2.28-2.91,3.5-4.06c1.13-1.07,2.3-1.96,3.5-2.65c0.98-0.58,1.98-1.02,3-1.33c1.14-0.35,2.31-0.53,3.5-0.53
	s2.36,0.18,3.5,0.53c1.2,0.36,2.36,0.91,3.5,1.62c-1.21,0.77-2.38,1.72-3.5,2.85c-1.04,1.04-2.05,2.24-3,3.57
	c-1.25,1.71-2.41,3.66-3.5,5.82c-1.29,2.56-2.47,5.42-3.5,8.52c-1.47,4.38-2.65,9.25-3.5,14.48c-0.97,5.97-1.5,12.4-1.5,19.11
	c0,6.71,0.53,13.14,1.5,19.11c0.85,5.23,2.03,10.1,3.5,14.48c1.03,3.1,2.21,5.96,3.5,8.52c1.09,2.16,2.25,4.11,3.5,5.82
	C273.45,856.26,274.46,857.46,275.5,858.5z"/>
<path class="st14" d="M279,861.35c1.14,0.71,2.3,1.26,3.5,1.62c-1.14,0.35-2.31,0.53-3.5,0.53s-2.36-0.18-3.5-0.53
	c-1.2-0.36-2.36-0.91-3.5-1.62c-1.03-0.65-2.03-1.44-3-2.36c-1.22-1.15-2.39-2.51-3.5-4.06c-1.25-1.71-2.41-3.66-3.5-5.82
	c-1.29-2.56-2.47-5.42-3.5-8.52c-3.14-9.39-5-21.01-5-33.59c0-12.58,1.86-24.2,5-33.59c1.03-3.1,2.21-5.96,3.5-8.52
	c1.09-2.16,2.25-4.11,3.5-5.82c1.11-1.55,2.28-2.91,3.5-4.06c0.97-0.92,1.97-1.71,3-2.36c1.14-0.71,2.3-1.26,3.5-1.62
	c1.14-0.35,2.31-0.53,3.5-0.53s2.36,0.18,3.5,0.53c-1.2,0.36-2.36,0.91-3.5,1.62c-1.21,0.77-2.38,1.72-3.5,2.85
	c-1.04,1.04-2.05,2.24-3,3.57c-1.25,1.71-2.41,3.66-3.5,5.82c-1.29,2.56-2.47,5.42-3.5,8.52c-1.47,4.38-2.65,9.25-3.5,14.48
	c-0.97,5.97-1.5,12.4-1.5,19.11c0,6.71,0.53,13.14,1.5,19.11c0.85,5.23,2.03,10.1,3.5,14.48c1.03,3.1,2.21,5.96,3.5,8.52
	c1.09,2.16,2.25,4.11,3.5,5.82c0.95,1.33,1.96,2.53,3,3.57C276.62,859.63,277.79,860.58,279,861.35z"/>
<path class="st15" d="M1371.5,244c0,31.2-11.42,56.5-25.5,56.5c-1.01,0-2.01-0.13-3-0.39c12.67-3.28,22.5-27.16,22.5-56.11
	s-9.83-52.83-22.5-56.11c0.99-0.26,1.99-0.39,3-0.39C1360.08,187.5,1371.5,212.8,1371.5,244z"/>
<path class="st15" d="M1365.5,244c0,28.95-9.83,52.83-22.5,56.11c-1.19-0.31-2.36-0.8-3.5-1.47c10.93-6.36,19-28.42,19-54.64
	c0-26.22-8.07-48.28-19-54.64c1.14-0.67,2.31-1.16,3.5-1.47C1355.67,191.17,1365.5,215.05,1365.5,244z"/>
<path class="st15" d="M1358.5,244c0,26.22-8.07,48.28-19,54.64c-1.2-0.69-2.37-1.58-3.5-2.65c9.11-8.61,15.5-28.65,15.5-51.99
	c0-23.34-6.39-43.38-15.5-51.99c1.13-1.07,2.3-1.96,3.5-2.65C1350.43,195.72,1358.5,217.78,1358.5,244z"/>
<path class="st15" d="M1351.5,244c0,23.34-6.39,43.38-15.5,51.99c-1.22-1.15-2.39-2.51-3.5-4.06c7.21-9.98,12-27.72,12-47.93
	c0-20.21-4.79-37.95-12-47.93c1.11-1.55,2.28-2.91,3.5-4.06C1345.11,200.62,1351.5,220.66,1351.5,244z"/>
<path class="st15" d="M1344.5,244c0,20.21-4.79,37.95-12,47.93c-1.06-1.45-2.06-3.08-3-4.85c5.5-10.36,9-25.82,9-43.08
	s-3.5-32.72-9-43.08c0.94-1.77,1.94-3.4,3-4.85C1339.71,206.05,1344.5,223.79,1344.5,244z"/>
<path class="st15" d="M1338.5,244c0,17.26-3.5,32.72-9,43.08c-1.28-2.41-2.46-5.11-3.5-8.04c3.44-9.63,5.5-21.8,5.5-35.04
	s-2.06-25.41-5.5-35.04c1.04-2.93,2.22-5.63,3.5-8.04C1335,211.28,1338.5,226.74,1338.5,244z"/>
<path class="st15" d="M1331.5,244c0,13.24-2.06,25.41-5.5,35.04c-1.42-3.97-2.6-8.37-3.5-13.1c1.29-6.75,2-14.16,2-21.94
	c0-7.78-0.71-15.19-2-21.94c0.9-4.73,2.08-9.13,3.5-13.1C1329.44,218.59,1331.5,230.76,1331.5,244z"/>
<ellipse class="st15" cx="1322.5" cy="244" rx="2" ry="21.94"/>
<ellipse class="st16" cx="1346.74" cy="243.94" rx="26.76" ry="56.5"/>
<g>
	<g>
		<path class="st17" d="M74.4,750.14c0.27-3.99,3.94-6.51,7.23-8.06c3.54-1.67,7.21-2.92,10.6-4.91
			c6.62-3.87,12.26-9.26,16.51-15.64c1.07-1.61-1.52-3.12-2.59-1.51c-4.41,6.63-10.48,12.06-17.55,15.73
			c-6.54,3.39-16.59,5.37-17.2,14.39C71.27,752.07,74.27,752.06,74.4,750.14L74.4,750.14z"/>
	</g>
</g>
<g>
	<g>
		<path class="st17" d="M285.15,749.33c-6.9-3.89-13.16-8.81-18.53-14.63c-4.91-5.32-8.71-12.22-15.34-15.65
			c-1.71-0.89-3.23,1.7-1.51,2.59c3.28,1.7,5.78,4.36,8.1,7.18c2.38,2.9,4.63,5.89,7.22,8.62c5.41,5.73,11.7,10.61,18.55,14.48
			C285.32,752.87,286.84,750.28,285.15,749.33L285.15,749.33z"/>
	</g>
</g>
<path class="st4" d="M1023.69,526.79h208.45c57,0,103.31,45.94,103.84,102.83c0.02,0.35,0.02,0.68,0.02,1.02
	c0,0.35,0,0.68-0.02,1.02h-63.61c0.04-0.61,0.06-1.21,0.06-1.82v-0.23c-0.12-22.68-18.55-41.05-41.25-41.05h-207.29"/>
<path class="st5" d="M1023.89,671.1h207.29c11.4,0,21.7-4.63,29.17-12.08c7.06-7.06,11.57-16.69,12.02-27.35h63.61
	c-0.27,28.27-11.83,53.84-30.4,72.41c-18.79,18.79-44.77,30.42-73.44,30.42h-208.45"/>
<g>
	<g>
		<path class="st18" d="M214.08,570.38c1.67,11.94,3.18,24.74-0.4,36.49c-1.79,5.86-5.02,11.07-9.64,15.12
			c-5.08,4.44-11.25,7.41-17.07,10.73c-10.9,6.21-22.02,13.7-27.95,25.15c-3.21,6.19-4.79,13.03-7.43,19.45
			c-2.36,5.74-5.83,10.93-10.02,15.49c-9.45,10.28-21.8,17.33-33.85,24.11c-1.68,0.95-0.17,3.54,1.51,2.59
			c10.98-6.18,22.09-12.58,31.27-21.34c4.46-4.25,8.42-9.1,11.38-14.52c3.41-6.25,5.1-13.18,7.7-19.77
			c2.48-6.29,6.28-11.69,11.24-16.27c4.7-4.35,10.09-7.86,15.59-11.09c5.87-3.44,12.08-6.41,17.5-10.56c5.1-3.91,9-8.88,11.44-14.83
			c5.35-13.04,3.53-27.96,1.63-41.53C216.71,567.68,213.82,568.49,214.08,570.38L214.08,570.38z"/>
	</g>
</g>
<g>
	<g>
		<path class="st5" d="M250.99,719.05c-8.87-10.02-9.02-24.41-5.68-36.68c3.25-11.96,9.02-23.42,16.33-33.41
			c7.29-9.95,16.41-18.14,27-24.44c3.1-1.84,6.24-3.61,9.27-5.56c2.81-1.81,5.51-3.8,8.28-5.68c2.94-2,5.99-3.77,9.17-5.36
			c2.98-1.5,6.01-2.93,8.86-4.66c11.38-6.92,20.15-17.71,24.75-30.19c0.67-1.81-2.23-2.6-2.89-0.8c-4.14,11.23-12,21.06-22.05,27.57
			c-5.84,3.78-12.41,6.24-18.22,10.09c-2.91,1.93-5.72,4.02-8.64,5.94c-3.01,1.98-6.14,3.75-9.24,5.58
			c-10.91,6.44-20.27,14.61-27.93,24.72c-7.58,10.01-13.5,21.58-17.08,33.62c-4.12,13.85-4.13,30,5.95,41.39
			C250.15,722.62,252.27,720.49,250.99,719.05L250.99,719.05z"/>
	</g>
</g>
</svg>
